<?xml version="1.0" standalone="no"?>
<!DOCTYPE svg PUBLIC "-//W3C//DTD SVG 20010904//EN"
 "http://www.w3.org/TR/2001/REC-SVG-20010904/DTD/svg10.dtd">
<svg version="1.0" xmlns="http://www.w3.org/2000/svg"
 width="512.000000pt" height="512.000000pt" viewBox="0 0 512.000000 512.000000"
 preserveAspectRatio="xMidYMid meet">
<g transform="translate(0.000000,512.000000) scale(0.100000,-0.100000)"
fill="#000000" stroke="none">
<path d="M390 5105 c-67 -21 -88 -35 -112 -73 -53 -87 20 -259 206 -482 207
-249 380 -395 676 -572 136 -81 146 -87 425 -237 254 -137 280 -152 342 -200
56 -43 84 -85 67 -100 -5 -5 -58 -12 -119 -15 -195 -11 -280 -34 -338 -92 -56
-56 -23 -127 131 -281 95 -95 106 -105 227 -203 44 -36 82 -68 85 -71 31 -36
550 -411 893 -644 70 -48 130 -92 134 -98 4 -7 -7 -8 -33 -3 -196 36 -386 41
-443 12 -104 -54 -89 -176 39 -318 77 -85 156 -145 775 -585 563 -401 790
-574 1280 -976 139 -113 222 -173 231 -164 15 15 -98 328 -271 752 -58 142
-113 275 -121 294 -29 65 -33 74 -118 271 -312 724 -511 1090 -883 1630 -65
94 -262 349 -378 489 -131 159 -331 375 -551 595 -237 237 -282 278 -499 455
-74 60 -303 218 -376 259 -19 10 -76 43 -128 72 -170 96 -487 225 -600 245
-19 3 -37 8 -41 10 -4 2 -47 12 -96 20 -123 23 -346 28 -404 10z"/>
</g>
</svg>
