<svg viewBox="0 0 409 200" xmlns="http://www.w3.org/2000/svg"><title>404</title><defs><linearGradient x1="-55.815%" y1="-23.532%" x2="173.522%" y2="122.497%" id="a"><stop stop-opacity="0" offset="0%"/><stop offset="99%"/></linearGradient><linearGradient x1="124.084%" y1="117.846%" x2="-77.333%" y2="-77.585%" id="b"><stop stop-opacity="0" offset="0%"/><stop offset="99%"/></linearGradient><linearGradient x1="107.761%" y1="52.864%" x2="-87.848%" y2="43.146%" id="c"><stop stop-opacity="0" offset="0%"/><stop offset="99%"/></linearGradient></defs><g fill-rule="nonzero" fill="none"><path d="M24.235 163.595a59.817 59.817 0 0 1-6.099-89.237c8.853-8.93 20.297-14.672 30.116-22.404 16.982-13.29 29.556-32.484 48.5-42.632 22.81-12.227 50.451-8.999 75.503-2.9s50.22 14.836 75.91 12.632c15.3-1.324 30.029-6.504 45.184-9.027 15.154-2.522 31.778-2.068 44.459 6.766 18.46 12.941 22.848 39.095 37.993 55.96 7.336 8.177 17.078 13.995 23.573 22.887 10.448 14.295 10.178 35.76-.628 49.785-13.84 17.929-38.815 20.77-58.957 30.628-11.211 5.49-21.263 13.406-32.861 18.006-24.375 9.666-51.795 3.374-76.789-4.436-24.994-7.81-50.741-17.204-76.615-13.376-24.162 3.595-45.938 18.508-70.303 20.77-11.308 1.053-24.221-.967-31.132-10.728-7.432-10.467-17.793-14.962-27.854-22.694z" fill="#22D3EE" opacity=".18"/><path d="M30.788 108.205c6.562-7.297 6.562-7.297 14.004-16.054l31.673-37.065c7.007-8.032 9.78-11.676 13.53-17.397h29.963a209.732 209.732 0 0 0-1.17 24.22v47.465h4.233c4.854-.045 9.7-.436 14.498-1.17v26.56a116.6 116.6 0 0 0-14.304-.87h-4.379v7.298c-.14 6.005.252 12.011 1.17 17.948H89.89a126.612 126.612 0 0 0 1.169-18.238v-7.152H49.76c-9.49 0-13.53.145-18.972.58v-26.125zM91.204 92.74c0-6.573.29-14.595.88-21.022-2.9 4.089-5.113 7.007-9.047 11.966l-21.311 25.98h29.478V92.74z" fill="#22D3EE"/><path d="M30.754 108.171c6.563-7.297 6.563-7.297 14.005-16.053L76.43 55.052c7.007-8.032 9.781-11.675 13.531-17.397h29.962a209.732 209.732 0 0 0-1.17 24.22v47.466h4.234c4.854-.046 9.699-.437 14.497-1.17v26.56a116.6 116.6 0 0 0-14.304-.87h-4.378v7.297c-.14 6.006.251 12.012 1.17 17.948H89.855a126.612 126.612 0 0 0 1.17-18.238v-7.152h-41.3c-9.49 0-13.53.145-18.972.58v-26.125zM91.17 92.707c0-6.572.29-14.594.88-21.021-2.9 4.088-5.113 7.007-9.047 11.965l-21.31 25.98H91.17V92.707z" fill="url(#a)" transform="translate(.033 .033)"/><path d="M256.128 107.664c6.563-7.298 6.563-7.298 14.005-16.054l31.673-37.075a145.672 145.672 0 0 0 13.53-17.397h29.962a209.732 209.732 0 0 0-1.17 24.23v47.436h4.234c4.838-.053 9.666-.443 14.45-1.17v26.56a114.714 114.714 0 0 0-14.305-.88h-4.378v7.298c-.14 6.005.25 12.011 1.17 17.948H315.23a126.612 126.612 0 0 0 1.17-18.16v-7.153H275.1c-9.491 0-13.58.145-18.973.59v-26.173zm60.417-15.465c0-6.572.29-14.594.87-21.011-2.9 4.078-5.104 6.997-9.047 11.965l-21.263 25.98h29.478l-.038-16.934z" fill="#22D3EE"/><path d="M256.095 107.63c6.563-7.297 6.563-7.297 14.005-16.054l31.672-37.075a145.672 145.672 0 0 0 13.531-17.397h29.962a209.732 209.732 0 0 0-1.17 24.23v47.437h4.234c4.837-.053 9.666-.444 14.449-1.17v26.56a114.714 114.714 0 0 0-14.304-.88h-4.379v7.297c-.14 6.006.251 12.012 1.17 17.948h-30.068a126.612 126.612 0 0 0 1.17-18.16v-7.153h-41.3c-9.49 0-13.579.145-18.972.59V107.63zm60.416-15.464c0-6.572.29-14.594.87-21.012-2.9 4.079-5.103 6.998-9.046 11.965L287.07 109.1h29.479l-.039-16.933z" fill="url(#b)" transform="translate(.033 .033)"/><path d="M161.691 147.107a46.044 46.044 0 0 1-10.631-16.209 96.98 96.98 0 0 1-5.693-33.421c0-15.32 3.653-31.228 9.201-40.42 8.902-14.894 24.076-23.06 42.468-23.06 14.16 0 26.56 4.832 35.461 13.53a46.006 46.006 0 0 1 10.632 16.2 97.25 97.25 0 0 1 5.683 33.566c0 15.329-3.644 31.382-9.191 40.593-8.757 14.614-24.076 22.81-42.614 22.81-14.304 0-26.414-4.698-35.316-13.59zm13.531-50.79c0 26.095 7.442 39.55 21.892 39.55 14.449 0 21.601-13.136 21.601-39.115 0-24.955-7.587-38.09-21.746-38.09-13.676 0-21.708 13.86-21.708 37.655h-.039z" fill="#22D3EE"/><path d="M161.658 147.073a46.044 46.044 0 0 1-10.632-16.208 96.98 96.98 0 0 1-5.693-33.422c0-15.319 3.654-31.228 9.202-40.42 8.901-14.893 24.075-23.06 42.468-23.06 14.16 0 26.56 4.833 35.46 13.531a46.006 46.006 0 0 1 10.632 16.199 97.25 97.25 0 0 1 5.684 33.566c0 15.33-3.644 31.383-9.192 40.594-8.756 14.613-24.076 22.81-42.613 22.81-14.304 0-26.415-4.698-35.316-13.59zm13.53-50.79c0 26.096 7.443 39.55 21.892 39.55 14.45 0 21.602-13.135 21.602-39.115 0-24.955-7.588-38.09-21.747-38.09-13.676 0-21.708 13.86-21.708 37.655h-.038z" fill="url(#c)" transform="translate(.033 .033)"/><path d="M34.064 107.664c6.572-7.298 6.572-7.298 14.014-16.054l31.673-37.075a145.672 145.672 0 0 0 13.531-17.397h29.962a209.732 209.732 0 0 0-1.17 24.23v47.436h4.233c4.854-.05 9.699-.441 14.498-1.17v26.56a114.714 114.714 0 0 0-14.304-.88h-4.379v7.298c-.14 6.005.251 12.011 1.17 17.948H93.176a126.612 126.612 0 0 0 1.17-18.16v-7.153h-41.31c-9.48 0-13.53.145-18.972.59v-26.173zM94.49 92.199c0-6.572.29-14.594.87-21.011-2.9 4.078-5.103 6.997-9.047 11.965l-21.263 25.98h29.44V92.199z" fill="#22D3EE"/><path d="M164.968 147.648a46.025 46.025 0 0 1-10.632-16.199 96.98 96.98 0 0 1-5.722-33.422c0-15.319 3.654-31.227 9.202-40.428 8.901-14.885 24.075-23.052 42.468-23.052 14.15 0 26.56 4.833 35.46 13.531a45.89 45.89 0 0 1 10.632 16.2 96.989 96.989 0 0 1 5.722 33.595c0 15.319-3.644 31.382-9.191 40.593-8.757 14.594-24.086 22.761-42.614 22.761-14.304-.01-26.414-4.678-35.325-13.58zm13.608-50.742c0 26.096 7.442 39.55 21.891 39.55 14.305 0 21.602-13.135 21.602-39.105 0-24.965-7.597-38.1-21.747-38.1-13.753-.038-21.746 13.821-21.746 37.655z" fill="var(--color-bg)"/><path d="M259.685 107.664c6.563-7.298 6.563-7.298 14.005-16.054l31.672-37.075c7.007-8.022 9.781-11.676 13.531-17.397h29.962a209.732 209.732 0 0 0-1.14 24.259v47.436h4.233c4.838-.053 9.666-.443 14.45-1.17v26.56a114.715 114.715 0 0 0-14.305-.88h-4.378v7.298c-.141 6.005.25 12.011 1.169 17.948h-30.097a126.612 126.612 0 0 0 1.17-18.19v-7.152h-41.3c-9.49 0-13.579.145-18.972.59v-26.173zm60.416-15.465c0-6.572.29-14.594.88-21.011-2.9 4.078-5.113 6.997-9.046 11.965l-21.312 25.98h29.478V92.199z" fill="#22D3EE"/></g></svg>