<svg  viewBox="0 0 407 334" xmlns="http://www.w3.org/2000/svg"><title>Taillow Hero</title><defs><linearGradient x1="54.65%" y1="39.912%" x2="-5.75%" y2="67.607%" id="a"><stop stop-color="#FFF" stop-opacity="0" offset="0%"/><stop stop-color="#FFF" offset="100%"/></linearGradient></defs><g fill="none" fill-rule="evenodd"><path d="M402.263 170.335c-4.417 13.273-11.936 25.284-19.849 36.818-8.45 12.322-17.583 24.425-29.302 33.661-13.984 10.996-31.03 17.416-45.582 27.645-12.794 9.008-23.396 20.77-35.508 30.69a155.389 155.389 0 0 1-109.637 34.292c-11.491-.932-23.065-3.22-33.274-8.615a66.561 66.561 0 0 1-9.96-6.481c-13.23-10.271-23.324-24.715-35.519-36.519-23.924-23.13-57.28-37.491-73.467-66.483a72.946 72.946 0 0 1-3.475-7.247c-7.51-17.913-7.903-38.62-2.628-57.403 5.038-17.974 14.936-34.282 27.306-48.322a173.183 173.183 0 0 1 7.24-7.683C49.655 83.692 62.325 73.98 70.734 60.862c1.2-1.874 2.317-3.82 3.393-5.788 3.63-6.647 6.857-13.564 11.853-19.217 7.623-8.614 18.556-13.46 29.199-17.747C135.865 9.672 157.193 1.875 179.482.726c19.466-1.035 38.745 3.168 56.887 9.878 26.168 9.629 49.41 23.545 76.457 30.73 14.697 3.924 29.126 8.915 42.179 16.153a101.193 101.193 0 0 1 31.878 26.92 96.618 96.618 0 0 1 17.583 38.113 90.616 90.616 0 0 1-2.203 47.815z" fill="currentColor" fill-rule="nonzero" opacity=".25"/><path d="M394 138.5c-4.861 4.566-16.37 7.142-23 6.5-6.63-.642-12.292-4.143-17.815-7.87-.673 7.651-11.645 12.91-19.185 14.37-12.61 2.335-22.751-1.353-32.841-9.276a27.145 27.145 0 0 1-25.858 9.204C264 146 259.338 134.288 257.5 130c-2.007-4.68-2-6-2-15s3.712-12.029 10.606-19.514C273 88 288.89 79.294 297 78c8.109-1.294 35.876-.946 38.725 3.218 3.465-8.5 7.468-17.602 15.515-22.075a21.347 21.347 0 0 1 3.775-1.636 101.193 101.193 0 0 1 31.878 26.92 96.618 96.618 0 0 1 17.532 38.103c-2.585 2.394-7.725 13.454-10.425 15.97z" fill="var(--color-bg)" fill-rule="nonzero" opacity=".698"/><path d="M289.626 272.787a18.43 18.43 0 0 1-6.061 4.07 112.491 112.491 0 0 1-62.204 10.136c-2.523-.31-10.85 3.934-12.163 6.005-7.416 11.7-21.214 18.11-34.95 19.86-13.735 1.749-27.605-.529-41.258-2.817-2.483 4.68-7.985 6.813-13.136 8.076l-.735.186c-13.228-10.27-23.323-24.715-35.518-36.518-23.893-23.09-57.25-37.45-73.436-66.442a72.946 72.946 0 0 1-3.475-7.247c8.646-10.945 22.155-17.602 38.393-15.014a40.35 40.35 0 0 1 31.03 25.968c.9-9.318 18.902-11.323 26.887-6.55 7.985 4.773 8 12 10.11 21.44a34.973 34.973 0 0 1 30.338-12.605 34.99 34.99 0 0 1 27.408 18.123c14.573-14.133 37.587-14.806 57.456-10.727 14.884 3.054 27.85 6.577 31.688 21.269 6.94-2.62 18.57.185 25.003 3.891 6.433 3.707 9.598 13.336 4.623 18.896z" fill="var(--color-bg)" fill-rule="nonzero" opacity=".696"/><path d="M221.672 69.88c-.197 2.589-3.155 3.862-5.648 4.577a730.43 730.43 0 0 1-181.19 28.028h-3.466a173.183 173.183 0 0 1 7.24-7.683c11.047-10.996 23.717-20.708 32.126-33.826 1.2-1.874 13.856-20.104 21.174-23.954a19.285 19.285 0 0 1 22.267 3.09c3.31-7.951 8.771-16.038 17.15-18.005 7.333-1.708 15.1 1.905 20.313 7.351 5.213 5.447 8.389 12.425 11.46 19.362 11.45-3.872 25.258 1.336 31.31 11.814 8.408-5.88 21.72-2.66 26.447 6.42.523.85.805 1.827.817 2.826z" fill="var(--color-bg)" fill-rule="nonzero" opacity=".7"/><g opacity=".802"><path d="M127.87 233.588c-1.34-1.822 9.945-14.97 33.856-39.446l5.245-10.383-14.791 5.08c-6.244 4.239-10.704 7.246-13.38 9.022-15.966 10.598-24.553 15.126-25.152 14.09-1.124-1.947 9.562-8.54 33.64-26.344 4.212-3.115 11.91-9.001 23.092-17.658 1.604-4.436 3.029-7.71 4.272-9.821 1.244-2.11 2.952-4.395 5.123-6.85-4.4-.633-4.056-3.283 1.03-7.95-7.324 2.787-7.783.745-1.375-6.127-6.71 1.856-8.204.267-4.481-4.766-11.26 2.462-18.906 2.695-22.94.699-5.678 4.143-8.954 5.458-9.828 3.944-1.14-1.974 18.812-19.08 38.518-26.132 4.431-1.586 16.442-6.055 19.669-4.867 2.745 1.01 1.417 4.777 2.053 11.792.205 2.265.702 5.87 1.491 10.819 2.457-5.28 4.7-8.881 6.73-10.807 5.123-4.86 12.682-7.742 16.686-7.038 3.153.554 6.469 2.432 10.007 4.604 4.04-3.486 6.713-4.596 8.02-3.332 1.96 1.897-5.124 26.318-20.024 37.948 3.491 1.186 6.157 1.81 7.997 1.872 5.604.188 10.868-1.138 11.888-.375 2.284 1.71 5.742 6.202-4.597 29.475-7.649 14.006-13.547 23.756-17.696 29.25-15.885 21.037-28.766 31.432-29.908 29.813-1.59-2.255 1.143-7.005 8.2-14.251-4.496-7.787-2.077-23.314 7.256-46.583-9.693 6.173-12.006 4.913-6.938-3.781-8.67 6.448-10.687 5.45-6.052-2.995l-9.165 6.59c-3.745 4.864-7.564 9.231-11.456 13.102-24.893 24.759-45.905 42.881-46.99 41.406z" fill="#22D3EE"/><path d="M21.498 114.173c-.25-2.248 16.098-7.992 49.043-17.233l9.734-6.369-15.35-2.997c-7.527.55-12.893.924-16.098 1.124C29.701 89.893 20 89.521 20 88.324c0-2.248 12.55-2.614 42.305-5.994 5.206-.592 14.815-1.84 28.827-3.747 3.608-3.04 6.478-5.162 8.61-6.368 2.133-1.207 4.754-2.33 7.863-3.372-3.495-2.747-1.872-4.87 4.867-6.369-7.738-1.248-7.114-3.247 1.871-5.994-6.738-1.748-7.238-3.871-1.497-6.368-10.982-3.497-17.72-7.118-20.217-10.865-6.988.75-10.482.25-10.482-1.498 0-2.28 25.832-7.118 46.423-3.372 4.63.843 17.267 2.977 19.467 5.62 1.872 2.247-1.161 4.845-4.118 11.238-.954 2.064-2.327 5.436-4.118 10.115 4.768-3.343 8.512-5.341 11.232-5.994 6.867-1.648 14.854-.363 17.97 2.248 2.453 2.056 4.386 5.34 6.364 8.991 5.241-.999 8.112-.624 8.61 1.124.75 2.622-17.595 20.23-36.314 22.852 2.43 2.773 4.427 4.646 5.99 5.62 4.76 2.965 9.981 4.448 10.483 5.62 1.123 2.622 1.872 8.241-18.72 23.226-13.626 8.306-23.61 13.8-29.95 16.484-24.275 10.275-40.627 12.838-40.807 10.864-.25-2.747 4.493-5.494 14.227-8.242 0-8.99 9.858-21.229 29.576-36.713-11.481.5-12.854-1.748-4.119-6.744-10.732 1.25-11.98-.624-3.743-5.619l-11.232 1.124c-5.675 2.34-11.166 4.213-16.472 5.62-33.938 8.994-61.196 14.183-61.398 12.362z" fill="url(#a)" transform="rotate(-30 297.514 -24.612)"/></g></g></svg>