<svg viewBox="0 0 675 128" xmlns="http://www.w3.org/2000/svg"><title>Taillow App logo</title><g fill="currentColor" fill-rule="evenodd"><path d="M154.736 128.315V35.76H125V8.908h95.795V35.76h-30.448v92.554h-35.611zm112.41-35.332a31.37 31.37 0 0 0-1.157-.293 34.69 34.69 0 0 0-7.924-.896c-5.104 0-8.725.627-10.861 1.88-2.137 1.253-3.205 3.372-3.205 6.355 0 1.433.445 2.835 1.335 4.207.89 1.373 2.077 2.507 3.561 3.402s3.116 1.342 4.897 1.342c5.342 0 8.903-.328 10.683-.984 1.78-.657 2.671-1.94 2.671-3.85V92.984zm0-15.258V74.25c0-4.893-1.632-8.414-4.896-10.562-3.265-2.148-7.865-3.222-13.8-3.222-5.46 0-10.861 1.044-16.203 3.133-5.342 2.088-9.497 4.386-12.464 6.892V42.206c2.73-1.79 7.419-3.58 14.066-5.371 6.648-1.79 14.482-2.685 23.504-2.685 2.255 0 5.134.179 8.636.537 3.502.358 7.152 1.104 10.95 2.237 3.799 1.134 7.39 2.895 10.773 5.282s6.113 5.58 8.19 9.577c2.078 3.998 3.117 9.1 3.117 15.307l-.178 42.427c0 4.655-1.662 8.593-4.986 11.816-3.324 3.222-8.31 5.639-14.957 7.25-6.647 1.611-15.016 2.417-25.106 2.417-6.173 0-11.811-.537-16.916-1.611-5.104-1.074-9.526-2.835-13.265-5.281-3.74-2.447-6.618-5.789-8.636-10.025-2.018-4.237-3.027-9.459-3.027-15.665 0-4.893 1.068-9.339 3.205-13.337 2.137-3.998 5.55-7.22 10.239-9.667 4.688-2.447 10.831-3.67 18.429-3.67 3.68 0 7.448.477 11.306 1.432 3.858.955 7.36 2.208 10.506 3.76.527.26 1.031.523 1.513.79zm43.858 50.59V38.983h32.407l.356 89.332h-32.763zm-.356-101.863V3h33.119v23.452h-33.119zm76.799 101.863h-32.05V3h32.05v125.315zm43.68 0h-32.05V3h32.05v125.315zM485.134 131c-15.788 0-27.688-4.058-35.7-12.173-8.013-8.116-12.02-20.35-12.02-36.7 0-17.783 4.007-30.314 12.02-37.594 8.012-7.28 19.912-10.92 35.7-10.92 10.328 0 19.082 1.58 26.264 4.744 7.181 3.162 12.642 8.294 16.381 15.395 3.74 7.102 5.609 16.56 5.609 28.375 0 16.35-4.155 28.584-12.464 36.7-8.31 8.115-20.24 12.173-35.79 12.173zm0-25.421c3.205 0 6.024-.806 8.458-2.417 2.433-1.611 4.333-4.147 5.698-7.608 1.365-3.461 2.047-7.937 2.047-13.427 0-6.564-.682-11.517-2.047-14.858-1.365-3.342-3.265-5.61-5.698-6.803-2.434-1.194-5.253-1.79-8.458-1.79-3.324 0-6.173.596-8.547 1.79-2.374 1.193-4.154 3.46-5.341 6.803-1.187 3.341-1.781 8.294-1.781 14.858 0 8.474 1.335 14.501 4.006 18.081 2.671 3.58 6.559 5.371 11.663 5.371zm95.122-18.995l12.125-49.391h22.791l12.354 50.885 12.753-50.885H675l-30.27 91.122h-28.667L603.575 87.73l-11.906 40.585H563l-30.448-91.122h35.078l12.625 49.39z" fill-rule="nonzero"/><path d="M114.992 127.901c.425-1.71-15.4-40.924-23.814-56.015C77.73 47.766 62.86 33.033 54.183 24.422 37.584 7.95 18.584-.738 5.28.05c-14.458.855 5.03 19.736 8.08 22.235 11.481 9.407 28.916 15.394 30.192 19.242.357 1.077-2.206.698-4.678.855-3.497.223-7.229 1.283-7.654 3.421-.425 2.138 4.677 8.98 35.72 29.932 5.364 3.62-1.701-.427-9.355.855-2.337.392-6.379 4.276 5.528 12.828 8.654 6.216 22.601 15.902 31.892 23.09 12.734 9.852 19.74 16.383 19.987 15.394z"/></g></svg>