<svg  viewBox="0 0 128 128" xmlns="http://www.w3.org/2000/svg"><title>Taillow App Logo</title><path d="M114.992 127.901c.425-1.71-15.4-40.924-23.814-56.015C77.73 47.766 62.86 33.033 54.183 24.422 37.584 7.95 18.584-.738 5.28.05c-14.458.855 5.03 19.736 8.08 22.235 11.481 9.407 28.916 15.394 30.192 19.242.357 1.077-2.206.698-4.678.855-3.497.223-7.229 1.283-7.654 3.421-.425 2.138 4.677 8.98 35.72 29.932 5.364 3.62-1.701-.427-9.355.855-2.337.392-6.379 4.276 5.528 12.828 8.654 6.216 22.601 15.902 31.892 23.09 12.734 9.852 19.74 16.383 19.987 15.394z" fill="currentColor" fill-rule="evenodd"/></svg>